<svg width="329" height="98" viewBox="0 0 329 98" fill="none" xmlns="http://www.w3.org/2000/svg">
<path d="M82.2369 65.536V88H76.7649V78.752H68.2529V88H62.7809V65.536H68.2529V74.336H76.7649V65.536H82.2369ZM103.019 78.784C103.019 79.296 102.987 79.8293 102.923 80.384H90.5391C90.6245 81.4933 90.9765 82.3467 91.5951 82.944C92.2351 83.52 93.0138 83.808 93.9311 83.808C95.2965 83.808 96.2458 83.232 96.7791 82.08H102.603C102.304 83.2533 101.76 84.3093 100.971 85.248C100.203 86.1867 99.2325 86.9227 98.0591 87.456C96.8858 87.9893 95.5738 88.256 94.1231 88.256C92.3738 88.256 90.8165 87.8827 89.4511 87.136C88.0858 86.3893 87.0191 85.3227 86.2511 83.936C85.4831 82.5493 85.0991 80.928 85.0991 79.072C85.0991 77.216 85.4725 75.5947 86.2191 74.208C86.9871 72.8213 88.0538 71.7547 89.4191 71.008C90.7845 70.2613 92.3525 69.888 94.1231 69.888C95.8511 69.888 97.3871 70.2507 98.7311 70.976C100.075 71.7013 101.12 72.736 101.867 74.08C102.635 75.424 103.019 76.992 103.019 78.784ZM97.4191 77.344C97.4191 76.4053 97.0991 75.6587 96.4591 75.104C95.8191 74.5493 95.0191 74.272 94.0591 74.272C93.1418 74.272 92.3631 74.5387 91.7231 75.072C91.1045 75.6053 90.7205 76.3627 90.5711 77.344H97.4191ZM111.378 64.32V88H105.906V64.32H111.378ZM120.815 72.672C121.349 71.84 122.085 71.168 123.023 70.656C123.962 70.144 125.061 69.888 126.319 69.888C127.791 69.888 129.125 70.2613 130.319 71.008C131.514 71.7547 132.453 72.8213 133.135 74.208C133.839 75.5947 134.191 77.2053 134.191 79.04C134.191 80.8747 133.839 82.496 133.135 83.904C132.453 85.2907 131.514 86.368 130.319 87.136C129.125 87.8827 127.791 88.256 126.319 88.256C125.082 88.256 123.983 88 123.023 87.488C122.085 86.976 121.349 86.3147 120.815 85.504V96.512H115.343V70.144H120.815V72.672ZM128.623 79.04C128.623 77.6747 128.239 76.608 127.471 75.84C126.725 75.0507 125.797 74.656 124.687 74.656C123.599 74.656 122.671 75.0507 121.903 75.84C121.157 76.6293 120.783 77.7067 120.783 79.072C120.783 80.4373 121.157 81.5147 121.903 82.304C122.671 83.0933 123.599 83.488 124.687 83.488C125.775 83.488 126.703 83.0933 127.471 82.304C128.239 81.4933 128.623 80.4053 128.623 79.04ZM162.502 65.536V88H157.03V74.528L152.006 88H147.59L142.534 74.496V88H137.062V65.536H143.526L149.83 81.088L156.07 65.536H162.502ZM183.269 78.784C183.269 79.296 183.237 79.8293 183.173 80.384H170.789C170.874 81.4933 171.226 82.3467 171.845 82.944C172.485 83.52 173.264 83.808 174.181 83.808C175.546 83.808 176.496 83.232 177.029 82.08H182.853C182.554 83.2533 182.01 84.3093 181.221 85.248C180.453 86.1867 179.482 86.9227 178.309 87.456C177.136 87.9893 175.824 88.256 174.373 88.256C172.624 88.256 171.066 87.8827 169.701 87.136C168.336 86.3893 167.269 85.3227 166.501 83.936C165.733 82.5493 165.349 80.928 165.349 79.072C165.349 77.216 165.722 75.5947 166.469 74.208C167.237 72.8213 168.304 71.7547 169.669 71.008C171.034 70.2613 172.602 69.888 174.373 69.888C176.101 69.888 177.637 70.2507 178.981 70.976C180.325 71.7013 181.37 72.736 182.117 74.08C182.885 75.424 183.269 76.992 183.269 78.784ZM177.669 77.344C177.669 76.4053 177.349 75.6587 176.709 75.104C176.069 74.5493 175.269 74.272 174.309 74.272C173.392 74.272 172.613 74.5387 171.973 75.072C171.354 75.6053 170.97 76.3627 170.821 77.344H177.669ZM197.612 88L192.94 79.52H191.628V88H186.156V65.536H195.34C197.111 65.536 198.615 65.8453 199.852 66.464C201.111 67.0827 202.049 67.936 202.668 69.024C203.287 70.0907 203.596 71.2853 203.596 72.608C203.596 74.1013 203.169 75.4347 202.316 76.608C201.484 77.7813 200.247 78.6133 198.604 79.104L203.788 88H197.612ZM191.628 75.648H195.02C196.023 75.648 196.769 75.4027 197.26 74.912C197.772 74.4213 198.028 73.728 198.028 72.832C198.028 71.9787 197.772 71.3067 197.26 70.816C196.769 70.3253 196.023 70.08 195.02 70.08H191.628V75.648ZM223.863 78.784C223.863 79.296 223.831 79.8293 223.767 80.384H211.383C211.468 81.4933 211.82 82.3467 212.439 82.944C213.079 83.52 213.858 83.808 214.775 83.808C216.14 83.808 217.09 83.232 217.623 82.08H223.447C223.148 83.2533 222.604 84.3093 221.815 85.248C221.047 86.1867 220.076 86.9227 218.903 87.456C217.73 87.9893 216.418 88.256 214.967 88.256C213.218 88.256 211.66 87.8827 210.295 87.136C208.93 86.3893 207.863 85.3227 207.095 83.936C206.327 82.5493 205.943 80.928 205.943 79.072C205.943 77.216 206.316 75.5947 207.063 74.208C207.831 72.8213 208.898 71.7547 210.263 71.008C211.628 70.2613 213.196 69.888 214.967 69.888C216.695 69.888 218.231 70.2507 219.575 70.976C220.919 71.7013 221.964 72.736 222.711 74.08C223.479 75.424 223.863 76.992 223.863 78.784ZM218.263 77.344C218.263 76.4053 217.943 75.6587 217.303 75.104C216.663 74.5493 215.863 74.272 214.903 74.272C213.986 74.272 213.207 74.5387 212.567 75.072C211.948 75.6053 211.564 76.3627 211.415 77.344H218.263ZM225.662 79.04C225.662 77.2053 226.003 75.5947 226.686 74.208C227.39 72.8213 228.339 71.7547 229.534 71.008C230.728 70.2613 232.062 69.888 233.534 69.888C234.792 69.888 235.891 70.144 236.83 70.656C237.79 71.168 238.526 71.84 239.038 72.672V70.144H244.51V88H239.038V85.472C238.504 86.304 237.758 86.976 236.798 87.488C235.859 88 234.76 88.256 233.502 88.256C232.051 88.256 230.728 87.8827 229.534 87.136C228.339 86.368 227.39 85.2907 226.686 83.904C226.003 82.496 225.662 80.8747 225.662 79.04ZM239.038 79.072C239.038 77.7067 238.654 76.6293 237.886 75.84C237.139 75.0507 236.222 74.656 235.134 74.656C234.046 74.656 233.118 75.0507 232.35 75.84C231.603 76.608 231.23 77.6747 231.23 79.04C231.23 80.4053 231.603 81.4933 232.35 82.304C233.118 83.0933 234.046 83.488 235.134 83.488C236.222 83.488 237.139 83.0933 237.886 82.304C238.654 81.5147 239.038 80.4373 239.038 79.072ZM247.38 79.04C247.38 77.2053 247.722 75.5947 248.404 74.208C249.108 72.8213 250.058 71.7547 251.252 71.008C252.447 70.2613 253.78 69.888 255.252 69.888C256.426 69.888 257.492 70.1333 258.452 70.624C259.434 71.1147 260.202 71.776 260.756 72.608V64.32H266.228V88H260.756V85.44C260.244 86.2933 259.508 86.976 258.548 87.488C257.61 88 256.511 88.256 255.252 88.256C253.78 88.256 252.447 87.8827 251.252 87.136C250.058 86.368 249.108 85.2907 248.404 83.904C247.722 82.496 247.38 80.8747 247.38 79.04ZM260.756 79.072C260.756 77.7067 260.372 76.6293 259.604 75.84C258.858 75.0507 257.94 74.656 256.852 74.656C255.764 74.656 254.836 75.0507 254.068 75.84C253.322 76.608 252.948 77.6747 252.948 79.04C252.948 80.4053 253.322 81.4933 254.068 82.304C254.836 83.0933 255.764 83.488 256.852 83.488C257.94 83.488 258.858 83.0933 259.604 82.304C260.372 81.5147 260.756 80.4373 260.756 79.072Z" fill="white"/>
<path d="M191 40.1529V2.51036C191 1.83671 190.742 1.20392 190.274 0.728683C189.811 0.258641 189.198 0 188.547 0C188.545 0 188.543 0 188.542 0C188.541 0 188.54 8.99475e-07 188.539 2.88085e-06C182.786 0.0141216 172.323 1.37082 166.877 10.2968C166.656 10.6605 166.539 11.1001 166.539 11.568V48.4353C166.539 49.3415 167.677 49.8067 168.367 49.2184C174.846 43.6879 183.299 42.675 188.531 42.6623C189.893 42.6588 191 41.5331 191 40.1529Z" fill="#7B61FF"/>
<path d="M176 20.5C176 21.8807 174.881 23 173.5 23C172.119 23 171 21.8807 171 20.5C171 19.1193 172.119 18 173.5 18C174.881 18 176 19.1193 176 20.5Z" fill="white"/>
<path fill-rule="evenodd" clip-rule="evenodd" d="M166.538 26.5H174.918C176.075 26.5 177.042 27.8428 176.637 29.349C176.197 30.981 175.383 32.4835 174.251 33.7071C172.484 35.6185 170.086 36.6923 167.586 36.6923C167.234 36.6923 166.885 36.6711 166.538 36.6292V26.5Z" fill="white"/>
<path d="M138 40.1529V2.51036C138 1.83671 138.258 1.20392 138.726 0.728683C139.189 0.258641 139.802 0 140.453 0H140.459C146.213 0.0139359 156.677 1.37021 162.123 10.2968C162.344 10.6605 162.461 11.1001 162.461 11.568V48.4353C162.461 49.3415 161.323 49.8067 160.633 49.2184C154.154 43.6879 145.701 42.675 140.469 42.6623C139.107 42.6588 138 41.5331 138 40.1529Z" fill="#1B8DFF"/>
<path d="M153 20.5C153 21.8807 154.119 23 155.5 23C156.881 23 158 21.8807 158 20.5C158 19.1193 156.881 18 155.5 18C154.119 18 153 19.1193 153 20.5Z" fill="white"/>
<path fill-rule="evenodd" clip-rule="evenodd" d="M162.462 26.5H154.082C152.925 26.5 151.958 27.8428 152.363 29.349C152.803 30.981 153.617 32.4835 154.749 33.7071C156.516 35.6185 158.914 36.6923 161.414 36.6923C161.766 36.6923 162.115 36.6711 162.462 36.6292V26.5Z" fill="white"/>
</svg>
